<?xml version="1.0" encoding="utf-8"?>

<!-- Uploaded to: SVG Repo, www.svgrepo.com, Generator: SVG Repo Mixer Tools -->
<svg width="800px" height="800px" viewBox="0 0 32 32" id="Lager_36" data-name="Lager 36" xmlns="http://www.w3.org/2000/svg">
  <g id="Group_14" data-name="Group 14">
    <rect id="Rectangle_12" data-name="Rectangle 12" width="4" height="4" rx="1" transform="translate(8 12)" fill="#9b142b"/>
    <rect id="Rectangle_13" data-name="Rectangle 13" width="8" height="4" rx="1" transform="translate(16 12)" fill="#9b142b"/>
    <rect id="Rectangle_14" data-name="Rectangle 14" width="4" height="4" rx="1" transform="translate(8 20)" fill="#9b142b"/>
    <rect id="Rectangle_15" data-name="Rectangle 15" width="8" height="4" rx="1" transform="translate(16 20)" fill="#9b142b"/>
    <path id="Path_43" data-name="Path 43" d="M30,0H2A2,2,0,0,0,0,2V30a2,2,0,0,0,2,2H30a2,2,0,0,0,2-2V2A2,2,0,0,0,30,0ZM28,27a1,1,0,0,1-1,1H5a1,1,0,0,1-1-1V9A1,1,0,0,1,5,8H27a1,1,0,0,1,1,1Z" fill="#9b142b"/>
  </g>
</svg>